<mxfile host="app.diagrams.net" modified="2023-11-06T13:41:50.913Z" agent="Mozilla/5.0 (Windows NT 10.0; Win64; x64) AppleWebKit/537.36 (KHTML, like Gecko) Chrome/118.0.0.0 Safari/537.36" version="22.0.8" etag="-xSXltkEfkiV3K7225fk" type="github">
  <diagram name="Page-1" id="mwbrezi8qCxRVFZS6meD">
    <mxGraphModel>
      <root>
        <mxCell id="0" />
        <mxCell id="1" parent="0" />
      </root>
    </mxGraphModel>
  </diagram>
</mxfile>
